<svg width="320" height="320" viewBox="0 0 320 320" fill="none" xmlns="http://www.w3.org/2000/svg">
<circle cx="160" cy="160" r="160" fill="#B3F0CF"/>
<path d="M165.5 129.5C178.066 129.5 189.38 133.117 197.513 138.889C205.649 144.663 210.5 152.502 210.5 161C210.5 169.498 205.649 177.337 197.513 183.111C189.38 188.883 178.066 192.5 165.5 192.5C152.934 192.5 141.62 188.883 133.487 183.111C125.351 177.337 120.5 169.498 120.5 161C120.5 152.502 125.351 144.663 133.487 138.889C141.62 133.117 152.934 129.5 165.5 129.5Z" fill="white" stroke="black" stroke-width="3"/>
<path d="M71 151C77.0845 124.673 98 141.887 98 151" stroke="black" stroke-width="3" stroke-linecap="round"/>
<path d="M265 147C257.873 126.314 243 139.84 243 147" stroke="black" stroke-width="3" stroke-linecap="round"/>
<path d="M209.007 87.9545C205.35 98.5776 205.268 109.245 208.024 117.883C210.779 126.52 216.328 133.034 223.899 135.641C231.47 138.248 239.853 136.531 247.342 131.421C254.831 126.311 261.335 117.855 264.993 107.232C268.65 96.6087 268.732 85.941 265.976 77.3033C263.221 68.6658 257.672 62.1522 250.101 59.5452C242.53 56.9383 234.147 58.6549 226.658 63.7649C219.169 68.8749 212.665 77.3314 209.007 87.9545Z" fill="white"/>
<path d="M209.007 87.9545C205.35 98.5776 205.268 109.245 208.024 117.883C210.779 126.52 216.328 133.034 223.899 135.641C231.47 138.248 239.853 136.531 247.342 131.421C254.831 126.311 261.335 117.855 264.993 107.232C268.65 96.6087 268.732 85.941 265.976 77.3033C263.221 68.6658 257.672 62.1522 250.101 59.5452C242.53 56.9383 234.147 58.6549 226.658 63.7649C219.169 68.8749 212.665 77.3314 209.007 87.9545Z" stroke="black" stroke-width="3"/>
<path d="M209.007 87.9545C205.35 98.5776 205.268 109.245 208.024 117.883C210.779 126.52 216.328 133.034 223.899 135.641C231.47 138.248 239.853 136.531 247.342 131.421C254.831 126.311 261.335 117.855 264.993 107.232C268.65 96.6087 268.732 85.941 265.976 77.3033C263.221 68.6658 257.672 62.1522 250.101 59.5452C242.53 56.9383 234.147 58.6549 226.658 63.7649C219.169 68.8749 212.665 77.3314 209.007 87.9545Z" stroke="black" stroke-width="3"/>
<mask id="mask0_4_36" style="mask-type:alpha" maskUnits="userSpaceOnUse" x="204" y="56" width="66" height="83">
<path d="M209.007 87.9545C205.35 98.5776 205.268 109.245 208.024 117.883C210.779 126.52 216.328 133.034 223.899 135.641C231.47 138.248 239.853 136.531 247.342 131.421C254.831 126.311 261.335 117.855 264.993 107.232C268.65 96.6087 268.732 85.941 265.976 77.3033C263.221 68.6658 257.672 62.1522 250.101 59.5452C242.53 56.9383 234.147 58.6549 226.658 63.7649C219.169 68.8749 212.665 77.3314 209.007 87.9545Z" fill="white"/>
<path d="M209.007 87.9545C205.35 98.5776 205.268 109.245 208.024 117.883C210.779 126.52 216.328 133.034 223.899 135.641C231.47 138.248 239.853 136.531 247.342 131.421C254.831 126.311 261.335 117.855 264.993 107.232C268.65 96.6087 268.732 85.941 265.976 77.3033C263.221 68.6658 257.672 62.1522 250.101 59.5452C242.53 56.9383 234.147 58.6549 226.658 63.7649C219.169 68.8749 212.665 77.3314 209.007 87.9545Z" stroke="black" stroke-width="3"/>
<path d="M209.007 87.9545C205.35 98.5776 205.268 109.245 208.024 117.883C210.779 126.52 216.328 133.034 223.899 135.641C231.47 138.248 239.853 136.531 247.342 131.421C254.831 126.311 261.335 117.855 264.993 107.232C268.65 96.6087 268.732 85.941 265.976 77.3033C263.221 68.6658 257.672 62.1522 250.101 59.5452C242.53 56.9383 234.147 58.6549 226.658 63.7649C219.169 68.8749 212.665 77.3314 209.007 87.9545Z" stroke="black" stroke-width="3"/>
</mask>
<g mask="url(#mask0_4_36)">
<ellipse cx="210" cy="114.5" rx="18" ry="22.5" fill="black"/>
</g>
<path d="M99.7573 72.2088C108.487 80.0689 114.179 89.5408 116.376 98.4419C118.575 107.353 117.248 115.521 112.234 121.09C107.219 126.659 99.2344 128.833 90.1425 127.577C81.0606 126.322 71.0456 121.652 62.3161 113.792C53.5867 105.932 47.8946 96.4595 45.6975 87.5585C43.4982 78.6476 44.8245 70.479 49.8391 64.9098C54.8537 59.3405 62.8389 57.1676 71.9309 58.4234C81.0127 59.678 91.0279 64.3489 99.7573 72.2088Z" fill="white"/>
<path d="M99.7573 72.2088C108.487 80.0689 114.179 89.5408 116.376 98.4419C118.575 107.353 117.248 115.521 112.234 121.09C107.219 126.659 99.2344 128.833 90.1425 127.577C81.0606 126.322 71.0456 121.652 62.3161 113.792C53.5867 105.932 47.8946 96.4595 45.6975 87.5585C43.4982 78.6476 44.8245 70.479 49.8391 64.9098C54.8537 59.3405 62.8389 57.1676 71.9309 58.4234C81.0127 59.678 91.0279 64.3489 99.7573 72.2088Z" stroke="black" stroke-width="3"/>
<path d="M99.7573 72.2088C108.487 80.0689 114.179 89.5408 116.376 98.4419C118.575 107.353 117.248 115.521 112.234 121.09C107.219 126.659 99.2344 128.833 90.1425 127.577C81.0606 126.322 71.0456 121.652 62.3161 113.792C53.5867 105.932 47.8946 96.4595 45.6975 87.5585C43.4982 78.6476 44.8245 70.479 49.8391 64.9098C54.8537 59.3405 62.8389 57.1676 71.9309 58.4234C81.0127 59.678 91.0279 64.3489 99.7573 72.2088Z" stroke="black" stroke-width="3"/>
<mask id="mask1_4_36" style="mask-type:alpha" maskUnits="userSpaceOnUse" x="43" y="56" width="76" height="74">
<path d="M99.7573 72.2088C108.487 80.0689 114.179 89.5408 116.376 98.4419C118.575 107.353 117.248 115.521 112.234 121.09C107.219 126.659 99.2344 128.833 90.1425 127.577C81.0606 126.322 71.0456 121.652 62.3161 113.792C53.5867 105.932 47.8946 96.4595 45.6975 87.5585C43.4982 78.6476 44.8245 70.479 49.8391 64.9098C54.8537 59.3405 62.8389 57.1676 71.9309 58.4234C81.0127 59.678 91.0279 64.3489 99.7573 72.2088Z" fill="white"/>
<path d="M99.7573 72.2088C108.487 80.0689 114.179 89.5408 116.376 98.4419C118.575 107.353 117.248 115.521 112.234 121.09C107.219 126.659 99.2344 128.833 90.1425 127.577C81.0606 126.322 71.0456 121.652 62.3161 113.792C53.5867 105.932 47.8946 96.4595 45.6975 87.5585C43.4982 78.6476 44.8245 70.479 49.8391 64.9098C54.8537 59.3405 62.8389 57.1676 71.9309 58.4234C81.0127 59.678 91.0279 64.3489 99.7573 72.2088Z" stroke="black" stroke-width="3"/>
<path d="M99.7573 72.2088C108.487 80.0689 114.179 89.5408 116.376 98.4419C118.575 107.353 117.248 115.521 112.234 121.09C107.219 126.659 99.2344 128.833 90.1425 127.577C81.0606 126.322 71.0456 121.652 62.3161 113.792C53.5867 105.932 47.8946 96.4595 45.6975 87.5585C43.4982 78.6476 44.8245 70.479 49.8391 64.9098C54.8537 59.3405 62.8389 57.1676 71.9309 58.4234C81.0127 59.678 91.0279 64.3489 99.7573 72.2088Z" stroke="black" stroke-width="3"/>
</mask>
<g mask="url(#mask1_4_36)">
<ellipse cx="110" cy="112" rx="15" ry="25" fill="black"/>
</g>
<mask id="path-11-inside-1_4_36" fill="white">
<path d="M119 239.5C119 244.425 120.254 249.301 122.692 253.851C125.129 258.4 128.702 262.534 133.205 266.017C137.709 269.499 143.056 272.261 148.94 274.145C154.824 276.03 161.131 277 167.5 277C173.869 277 180.176 276.03 186.06 274.145C191.944 272.261 197.291 269.499 201.795 266.017C206.298 262.534 209.871 258.4 212.308 253.851C214.746 249.301 216 244.425 216 239.5L167.5 239.5H119Z"/>
</mask>
<path d="M119 239.5C119 244.425 120.254 249.301 122.692 253.851C125.129 258.4 128.702 262.534 133.205 266.017C137.709 269.499 143.056 272.261 148.94 274.145C154.824 276.03 161.131 277 167.5 277C173.869 277 180.176 276.03 186.06 274.145C191.944 272.261 197.291 269.499 201.795 266.017C206.298 262.534 209.871 258.4 212.308 253.851C214.746 249.301 216 244.425 216 239.5L167.5 239.5H119Z" fill="#ECA0E6" stroke="black" stroke-width="6" mask="url(#path-11-inside-1_4_36)"/>
<path d="M164 267C164 268.657 165.343 270 167 270C168.657 270 170 268.657 170 267H167H164ZM167 240H164V267H167H170V240H167Z" fill="black"/>
</svg>
